<?xml version="1.0" encoding="UTF-8" standalone="no"?>
<svg xmlns:dc="http://purl.org/dc/elements/1.1/"
  xmlns:cc="http://creativecommons.org/ns#"
  xmlns:rdf="http://www.w3.org/1999/02/22-rdf-syntax-ns#"
  xmlns:svg="http://www.w3.org/2000/svg"
  xmlns="http://www.w3.org/2000/svg"
  xmlns:sodipodi="http://sodipodi.sourceforge.net/DTD/sodipodi-0.dtd"
  xmlns:inkscape="http://www.inkscape.org/namespaces/inkscape" version="1.1" id="svg2" xml:space="preserve" width="631.88934" height="630.08936" viewBox="0 0 631.88934 630.08936" sodipodi:docname="tier_logo.ai">
  <metadata id="metadata8">
    <rdf:RDF>
      <cc:Work rdf:about="">
        <dc:format>image/svg+xml</dc:format>
        <dc:type rdf:resource="http://purl.org/dc/dcmitype/StillImage" />
      </cc:Work>
    </rdf:RDF>
  </metadata>
  <defs id="defs6">
    <clipPath clipPathUnits="userSpaceOnUse" id="clipPath18">
      <path d="M 0,472.567 H 473.917 V 0 H 0 Z" id="path16" />
    </clipPath>
  </defs>
  <sodipodi:namedview pagecolor="#ffffff" bordercolor="#666666" borderopacity="1" objecttolerance="10" gridtolerance="10" guidetolerance="10" inkscape:pageopacity="0" inkscape:pageshadow="2" inkscape:window-width="640" inkscape:window-height="480" id="namedview4" />
  <g id="g10" inkscape:groupmode="layer" inkscape:label="tier_logo" transform="matrix(1.3333333,0,0,-1.3333333,0,630.08933)">
    <g id="g12">
      <g id="g14" clip-path="url(#clipPath18)">
        <g id="g20" transform="translate(286.6016,296.1128)">
          <path d="m 0,0 c -11.92,-3.017 -5.43,-0.326 -20.4,-7.404 -7.83,-3.703 -23.733,-14.428 -30.751,-19.576 -3.977,-2.916 -19.879,2.012 -23.233,5.628 -4.433,4.779 -2.858,23.538 7.543,25.931 13.113,3.016 4.57,-6.228 18.835,-4.518 14.443,1.724 37.678,10.98 52.19,12.264 C 6.129,12.499 24.029,6.079 0,0 m 170.07,25.11 c -2,-0.972 -4.365,-1.621 -6.199,-1.171 -14.836,3.668 -27.387,9.086 -44.283,11.269 C 68.457,40.65 -22.779,27.244 -42.496,23.456 -63.268,19.471 -92.481,15.983 -112.154,8.644 c -8.373,-3.12 -15.388,-14.453 -21.572,-22.643 -6.906,-9.138 -12.198,-18.638 -18.062,-28.48 -34.652,-58.166 -54.578,-92.582 -62.64,-107.781 -0.936,-1.766 -1.618,-3.692 -0.882,-6.998 4.029,3.373 8.25,6.552 12.048,10.168 29.466,28.007 56.069,51.277 86.686,82.373 1.714,1.74 4.082,4.645 5.632,6.532 6.721,8.185 8.911,10.675 16.489,19.279 4.95,5.619 9.253,4.977 15.441,2.114 3.585,-1.646 10.01,-3.907 13.51,-5.736 -2.264,-1.284 -4.566,-4.635 -5.913,-6.492 -1.347,-1.855 -2.854,-3.937 -4.288,-5.9 -7.122,-9.731 -17.222,-26 -30.404,-55.082 -3.684,-8.127 -8.409,-19.868 -10.895,-28.682 14.043,7.252 23.306,17.684 33.512,27.625 5.162,5.033 36.195,37.432 44.783,47.246 8.453,9.662 27.188,29.538 39.162,36.43 8.225,4.735 12.613,4.812 25.746,-2.012 8.697,-4.518 13.28,-7.508 12.881,-14.793 -0.404,-7.288 -5.881,-19.082 -18.422,-30.732 -23.803,-22.116 -32.01,-27.452 -47.332,-36.997 -2.715,-1.687 -4.34,-19.898 -1.355,-23.384 3.381,-4.02 11.123,-0.758 12.953,0.275 11.881,4.951 25.064,14.033 43.144,30.76 22.479,20.793 36.336,41.058 41.522,53.26 2.453,6.068 2.178,7.235 2.806,12.176 0.676,5.294 -1.115,12.554 -1.115,12.554 0,0 7.348,3.824 14.717,2.099 7.35,-1.72 16.893,-8.682 17.471,-11.257 2.213,-9.862 -21.537,-47.096 -21.737,-59.525 9.247,13.636 27.135,36.291 42.03,51.978 7.549,7.95 15.949,12.279 21.562,13.085 15.049,2.16 22.742,-4.087 24.076,-12.985 0.694,-4.629 -3.777,-11.848 -7.849,-13.736 -5.637,-2.617 -15.012,-3.016 -21.049,4.004 -2.336,2.713 -2.617,5.231 -3.154,7.502 -2.346,-0.376 -20.83,-14.324 -32.907,-30.626 -4.888,-6.599 -13.412,-16.404 -19.472,-25.209 -4.356,-6.324 -7.446,-12.846 -8.453,-16 -2.086,-6.517 -3.192,-10.418 -3.78,-15.627 6.782,-1.885 -0.263,-25.332 -21.222,-24.908 -10.438,0.211 -14.262,3.803 -16.266,10.07 -1.678,5.258 0.381,13.784 2.803,19.315 4.67,10.607 4.418,10.369 12.095,26.344 4.93,10.24 11.969,27.084 12.665,28.48 -5.666,-7.99 -14.399,-20.766 -23.352,-30.867 -19.049,-21.492 -34.652,-42.356 -48.596,-52.012 -2.744,-1.894 -6.715,-4.215 -9.574,-5.941 -10.359,-6.248 -27.711,-6.567 -37.63,2.304 -9.406,8.418 -11.604,11.741 -11.151,23.821 0.433,11.558 5.434,27.172 13.485,46.392 -16.001,-16.404 -39.47,-43.066 -51.499,-58.066 -6.302,-7.856 -8.78,-12.328 -15.321,-20.026 -4.038,-4.751 -13.887,-9.056 -23.595,-6.964 -9.913,2.136 -14.539,13.093 -12.331,22.966 3.983,17.821 15.701,41.663 22.946,56.957 -8.594,-8.587 -15.749,-12.324 -33.632,-30.164 -23.228,-23.171 -36.21,-40.078 -46.387,-55.013 -3.066,-4.498 -5.333,-9.655 -8.23,-14.364 -4.802,-7.822 -10.093,-9.296 -17.314,-5.119 42.88,-58.203 111.888,-95.974 189.727,-95.974 130.071,0 235.512,105.441 235.512,235.512 0,29.951 -5.601,58.589 -15.799,84.94" style="fill:#00b9ad;fill-opacity:1;fill-rule:evenodd;stroke:none" id="path22" />
        </g>
        <g id="g24" transform="translate(32.7402,148.833)">
          <path d="m 0,0 c 4.975,10.027 11.534,17.482 17.466,27.012 4.665,7.523 12.217,17.209 17.51,25.662 18.859,30.189 39.388,62.191 53.276,92.381 -10.114,-1.068 -13.736,-1.962 -27.624,-5.132 -16.302,-3.72 -17.208,-6.491 -23.699,-6.944 -0.533,-0.036 -2.814,0.965 -3.267,1.353 -3.493,2.979 -8.766,25.254 -7.106,29.697 3.915,10.462 9.552,3.054 13.927,1.603 7.715,-2.562 11.677,-2.864 17.39,-2.333 14.478,1.345 19.699,1.594 31.964,3.4 2.363,0.351 9.528,1.644 10.802,3.716 3.965,6.452 6.642,9.812 9.409,17.711 2.054,5.864 3.625,14.088 3.625,14.088 0,0 23.346,0.051 36.025,-8.855 8.274,-5.812 6.08,-7.892 0.462,-17.327 52.319,14.878 181.735,30.053 190.643,31.105 13.152,1.55 26.41,2.276 39.621,3.377 5.254,0.437 10.502,1.235 15.758,1.35 4.422,0.093 7.714,-1.487 10.406,-3.903 -41.1,68.869 -116.342,115.002 -202.369,115.002 -130.072,0 -235.513,-105.441 -235.513,-235.513 0,-41.343 10.666,-80.188 29.375,-113.96 -0.443,3.944 -0.418,8.131 -0.038,12.565 0.4,4.691 0,10.002 1.957,13.945" style="fill:#00b9ad;fill-opacity:1;fill-rule:evenodd;stroke:none" id="path26" />
        </g>
        <g id="g28" transform="translate(305.9824,255.9243)">
          <path d="m 0,0 c -17.402,-7.537 -35.158,-35.164 -44.229,-62.72 15.206,6.785 37.36,31.549 45.133,59.663 C 1.254,-1.791 0.98,-0.528 0,0" style="fill:#00b9ad;fill-opacity:1;fill-rule:evenodd;stroke:none" id="path30" />
        </g>
      </g>
    </g>
  </g>
</svg>
